<?xml version="1.0" encoding="UTF-8" standalone="no"?>
<!-- Created with Inkscape (http://www.inkscape.org/) -->

<svg
   xmlns:dc="http://purl.org/dc/elements/1.1/"
   xmlns:cc="http://creativecommons.org/ns#"
   xmlns:rdf="http://www.w3.org/1999/02/22-rdf-syntax-ns#"
   xmlns:svg="http://www.w3.org/2000/svg"
   xmlns="http://www.w3.org/2000/svg"
   xmlns:sodipodi="http://sodipodi.sourceforge.net/DTD/sodipodi-0.dtd"
   xmlns:inkscape="http://www.inkscape.org/namespaces/inkscape"
   width="70"
   height="85"
   viewBox="0 0 744.09449 1052.3622"
   id="svg4552"
   version="1.1"
   inkscape:version="0.91 r13725"
   sodipodi:docname="combustivel.svg">
  <defs
     id="defs4554" />
  <sodipodi:namedview
     id="base"
     pagecolor="#ffffff"
     bordercolor="#666666"
     borderopacity="1.0"
     inkscape:pageopacity="0.0"
     inkscape:pageshadow="2"
     inkscape:zoom="2"
     inkscape:cx="-34.20428"
     inkscape:cy="19.963835"
     inkscape:document-units="px"
     inkscape:current-layer="layer1"
     showgrid="false"
     inkscape:object-paths="false"
     inkscape:window-width="1366"
     inkscape:window-height="704"
     inkscape:window-x="0"
     inkscape:window-y="27"
     inkscape:window-maximized="1" />
  <metadata
     id="metadata4557">
    <rdf:RDF>
      <cc:Work
         rdf:about="">
        <dc:format>image/svg+xml</dc:format>
        <dc:type
           rdf:resource="http://purl.org/dc/dcmitype/StillImage" />
        <dc:title />
      </cc:Work>
    </rdf:RDF>
  </metadata>
  <g
     inkscape:label="Camada 1"
     inkscape:groupmode="layer"
     id="layer1">
    <path
       style="opacity:1;fill:#ff0000;fill-opacity:1;fill-rule:nonzero;stroke:#ff00b3;stroke-width:0;stroke-linejoin:miter;stroke-miterlimit:4;stroke-dasharray:none;stroke-dashoffset:0;stroke-opacity:1"
       d="m 91.015601,41.784976 c -40.705256,0 -73.486339,36.644737 -73.486339,82.147394 l 0,804.52456 c 0,45.50278 32.781083,82.12027 73.486339,82.12027 l 410.183859,0 c 40.70526,0 73.46218,-36.61749 73.46218,-82.12027 l 0,-804.52456 c 0,-45.502657 -32.75692,-82.147394 -73.46218,-82.147394 l -410.183859,0 z m 62.580709,69.199494 284.99837,0 c 41.09022,0 74.16338,36.64461 74.16338,82.14726 l 0,132.28997 c 0,45.50266 -33.07316,82.12028 -74.16338,82.12028 l -284.99837,0 c -41.09011,0 -74.163382,-36.61762 -74.163382,-82.12028 l 0,-132.28997 c 0,-45.50265 33.073272,-82.14726 74.163382,-82.14726 z"
       id="rect5100"
       inkscape:connector-curvature="0" />
    <rect
       style="opacity:1;fill:#ff0000;fill-opacity:1;fill-rule:nonzero;stroke:#ff00b3;stroke-width:0;stroke-linejoin:miter;stroke-miterlimit:4;stroke-dasharray:none;stroke-dashoffset:0;stroke-opacity:1"
       id="rect5105"
       width="680.94012"
       height="86.665031"
       x="-44.37471"
       y="923.91217"
       rx="19.634823"
       ry="19.634823" />
    <path
       style="opacity:1;fill:#ff0000;fill-opacity:1;fill-rule:nonzero;stroke:#ff00b3;stroke-width:0;stroke-linejoin:miter;stroke-miterlimit:4;stroke-dasharray:none;stroke-dashoffset:0;stroke-opacity:1"
       d="m 717.89104,262.25756 c 0.71556,3.30021 1.15626,6.69909 1.15626,10.23392 l 0,83.60534 c 14.6721,7.30402 24.85046,22.87997 24.85046,41.17658 l 0,429.32019 c 0,25.30845 -19.32916,45.67958 -43.34372,45.67958 -24.01436,0 -43.34322,-20.37113 -43.34322,-45.67958 l 0,-26.89714 -34.91576,0 c -3.32196,0 -6.52786,-0.46551 -9.63186,-1.20464 l 0,30.26841 c 0,48.7006 39.19072,87.89156 87.89084,87.89156 48.70042,0 87.91518,-39.19096 87.91518,-87.89156 l 0,-480.32125 c 0,-42.76404 -30.23256,-78.17912 -70.57768,-86.18203 z"
       id="rect5141"
       inkscape:connector-curvature="0" />
    <path
       style="opacity:1;fill:#ff0000;fill-opacity:1;fill-rule:nonzero;stroke:#ff00b3;stroke-width:0;stroke-linejoin:miter;stroke-miterlimit:4;stroke-dasharray:none;stroke-dashoffset:0;stroke-opacity:1"
       d="m 570.55084,405.66246 c -0.3677,0 -0.7218,0.0495 -1.08826,0.0495 l 0,43.57435 c 23.93616,0.0743 43.18742,19.32843 43.18742,43.28415 l 0,330.21739 c 3.0657,0.72056 6.2259,1.18484 9.50316,1.18484 l 35.06256,0 0,-331.64402 c 0,-48.01236 -38.65272,-86.66512 -86.66498,-86.66512 z"
       id="rect5107-1"
       inkscape:connector-curvature="0" />
    <rect
       style="opacity:1;fill:#ff0000;fill-opacity:1;fill-rule:nonzero;stroke:#ff00b3;stroke-width:0;stroke-linejoin:miter;stroke-miterlimit:4;stroke-dasharray:none;stroke-dashoffset:0;stroke-opacity:1"
       id="rect5179"
       width="106.14828"
       height="61.281471"
       x="681.216"
       y="67.51107"
       rx="27.208286"
       ry="19.634842"
       transform="matrix(0.96592583,0.25881905,-0.25881905,0.96592583,0,0)" />
    <rect
       style="opacity:1;fill:#ff0000;fill-opacity:1;fill-rule:nonzero;stroke:#ff00b3;stroke-width:0;stroke-linejoin:miter;stroke-miterlimit:4;stroke-dasharray:none;stroke-dashoffset:0;stroke-opacity:1"
       id="rect5181"
       width="62.677452"
       height="60.356068"
       x="763.05408"
       y="-111.15388"
       rx="27.208265"
       ry="19.63485"
       transform="matrix(0.8660254,0.5,-0.5,0.8660254,0,0)" />
  </g>
</svg>
