<?xml version="1.0" encoding="UTF-8" standalone="no"?>
<!-- Created with Inkscape (http://www.inkscape.org/) -->

<svg
   xmlns:dc="http://purl.org/dc/elements/1.1/"
   xmlns:cc="http://creativecommons.org/ns#"
   xmlns:rdf="http://www.w3.org/1999/02/22-rdf-syntax-ns#"
   xmlns:svg="http://www.w3.org/2000/svg"
   xmlns="http://www.w3.org/2000/svg"
   xmlns:xlink="http://www.w3.org/1999/xlink"
   xmlns:sodipodi="http://sodipodi.sourceforge.net/DTD/sodipodi-0.dtd"
   xmlns:inkscape="http://www.inkscape.org/namespaces/inkscape"
   width="420"
   height="360"
   viewBox="0 0 744.09449 1052.3622"
   id="svg4834"
   version="1.1"
   inkscape:version="0.91 r13725"
   sodipodi:docname="velocimetro00.svg">
  <defs
     id="defs4836" />
  <sodipodi:namedview
     id="base"
     pagecolor="#ffffff"
     bordercolor="#666666"
     borderopacity="1.0"
     inkscape:pageopacity="0.0"
     inkscape:pageshadow="2"
     inkscape:zoom="2"
     inkscape:cx="90.517446"
     inkscape:cy="133.04906"
     inkscape:document-units="px"
     inkscape:current-layer="layer1"
     showgrid="false"
     showguides="true"
     inkscape:window-width="1366"
     inkscape:window-height="704"
     inkscape:window-x="0"
     inkscape:window-y="27"
     inkscape:window-maximized="1" />
  <metadata
     id="metadata4839">
    <rdf:RDF>
      <cc:Work
         rdf:about="">
        <dc:format>image/svg+xml</dc:format>
        <dc:type
           rdf:resource="http://purl.org/dc/dcmitype/StillImage" />
        <dc:title></dc:title>
      </cc:Work>
    </rdf:RDF>
  </metadata>
  <g
     inkscape:label="Camada 1"
     inkscape:groupmode="layer"
     id="layer1">
    <path
       style="opacity:1;fill:#000000;fill-opacity:1;fill-rule:nonzero;stroke:#0000af;stroke-width:17.53936958;stroke-linejoin:bevel;stroke-miterlimit:4;stroke-dasharray:none;stroke-dashoffset:0;stroke-opacity:0.94117647"
       d="M 371.01371,31.949975 A 584.64568,584.64568 0 0 0 -213.63195,616.59566 584.64568,584.64568 0 0 0 -51.466985,1020.4122 l 844.321995,0 A 584.64568,584.64568 0 0 0 955.65941,616.59566 584.64568,584.64568 0 0 0 371.01371,31.949975 Z"
       id="path5382"
       inkscape:connector-curvature="0" />
    <path
       inkscape:connector-curvature="0"
       style="opacity:1;fill:#917c6f;fill-opacity:0.39215687;fill-rule:nonzero;stroke:#ff00b3;stroke-width:0;stroke-linejoin:miter;stroke-miterlimit:4;stroke-dasharray:none;stroke-dashoffset:0;stroke-opacity:1"
       d="m 363.27757,61.621881 a 555.41339,555.41339 0 0 0 -60.67412,5.10423 l 1.82131,13.83395 a 540.79725,540.79725 0 0 1 58.85281,-4.32204 l 0,-14.61614 z m -66.44066,6.12051 a 555.41339,555.41339 0 0 0 -59.65783,11.64153 l 3.56269,13.29155 a 540.79725,540.79725 0 0 1 57.89933,-11.24187 l -1.80419,-13.69121 z m 66.44066,15.67239 a 533.48918,533.48918 0 0 0 -57.88221,4.539 l 10.56245,80.211789 a 453.1004,453.1004 0 0 1 47.31976,-4.36201 l 0,-80.388779 z m -142.9984,0.65658 a 555.41339,555.41339 0 0 0 -57.36836,20.005849 l 4.99577,12.0526 A 540.79725,540.79725 0 0 1 223.7448,97.014641 l -3.46563,-12.94328 z m 79.3097,4.58467 a 533.48918,533.48918 0 0 0 -56.99726,10.91643 l 21.07353,78.653119 a 453.1004,453.1004 0 0 1 46.47477,-9.4434 L 299.58887,88.656031 Z m -74.02278,15.147119 a 533.48918,533.48918 0 0 0 -54.83906,19.14372 l 31.39044,75.77557 a 453.1004,453.1004 0 0 1 44.60206,-15.97499 l -21.15344,-78.9443 z m -67.98216,2.69485 a 555.41339,555.41339 0 0 0 -54.84479,26.10923 l 6.62862,11.48167 a 540.79725,540.79725 0 0 1 53.04063,-25.94937 L 157.58393,106.498 Z m 7.80478,18.83541 a 533.48918,533.48918 0 0 0 -52.14995,25.46407 l 40.80532,70.67133 a 453.1004,453.1004 0 0 1 42.58664,-20.70239 l -31.24201,-75.43301 z m -77.682503,16.31756 a 555.41339,555.41339 0 0 0 -50.214446,34.15381 l 8.067426,10.51677 a 540.79725,540.79725 0 0 1 48.849895,-33.06331 l -6.702875,-11.60727 z m 10.316949,17.87051 a 533.48918,533.48918 0 0 0 -48.147641,32.42386 l 49.928969,65.07038 A 453.1004,453.1004 0 0 1 138.81701,230.17569 L 98.023156,159.52148 Z m -65.047555,20.00014 a 555.41339,555.41339 0 0 0 -46.212128,39.40078 l 9.5347505,9.53475 A 540.79725,540.79725 0 0 1 40.906001,189.85569 l -7.9304,-10.33407 z M 45.11956,195.34246 A 533.48918,533.48918 0 0 0 1.0941415,233.25307 L 59.147639,291.30656 A 453.1004,453.1004 0 0 1 95.031409,260.39 L 45.11956,195.34246 Z m -70.97964,35.75816 a 555.41339,555.41339 0 0 0 -39.75477,45.99517 l 10.60812,8.13594 a 540.79725,540.79725 0 0 1 38.52725,-44.75052 l -9.3806,-9.38059 z m 14.924453,14.92445 a 533.48918,533.48918 0 0 0 -37.973423,43.88839 l 64.762072,49.68918 a 453.1004,453.1004 0 0 1 30.819503,-35.96942 l -57.608152,-57.60815 z m -58.082043,35.82097 a 555.41339,555.41339 0 0 0 -34.53063,50.05457 l 12.18963,7.03974 a 540.79725,540.79725 0 0 1 32.94913,-48.95267 l -10.60813,-8.14164 z m 16.56877,12.71488 a 533.48918,533.48918 0 0 0 -32.52092,48.062 l 70.30594,40.59406 A 453.1004,453.1004 0 0 1 12.101926,344.09596 L -52.4489,294.56092 Z m -59.56649,52.69806 a 555.41339,555.41339 0 0 0 -26.68017,54.62214 l 12.72633,5.2755 a 540.79725,540.79725 0 0 1 25.88655,-53.00635 l -11.93271,-6.89129 z m 17.87623,10.31696 a 533.48918,533.48918 0 0 0 -25.52686,52.18989 l 75.57573,31.30482 a 453.1004,453.1004 0 0 1 20.54253,-42.73511 l -70.5914,-40.7596 z m -46.62892,49.77481 a 555.41339,555.41339 0 0 0 -20.60533,57.24844 l 13.55989,3.63691 a 540.79725,540.79725 0 0 1 19.45774,-55.74114 l -12.4123,-5.14421 z m 19.09805,7.90756 a 533.48918,533.48918 0 0 0 -18.81829,54.93615 l 78.12214,20.93648 a 453.1004,453.1004 0 0 1 15.80941,-44.75623 l -75.11326,-31.1164 z m -44.52785,66.20654 a 555.41339,555.41339 0 0 0 -11.45883,59.81773 l 14.52479,1.91264 a 540.79725,540.79725 0 0 1 11.09913,-57.9336 l -14.16509,-3.79677 z m 21.3704,5.72657 a 533.48918,533.48918 0 0 0 -11.04775,56.95727 l 80.00054,10.53961 a 453.1004,453.1004 0 0 1 8.83249,-46.65745 l -77.78528,-20.83943 z m -33.40017,59.92048 a 555.41339,555.41339 0 0 0 -4.89299,60.72548 l 14.67895,0 a 540.79725,540.79725 0 0 1 4.60751,-58.82997 l -14.39347,-1.89551 z m 21.47888,2.82615 a 533.48918,533.48918 0 0 0 -4.25353,57.89933 l 80.38878,0 a 453.1004,453.1004 0 0 1 3.72826,-47.38255 l -79.86351,-10.51678 z m -26.09781,75.4387 a 555.41339,555.41339 0 0 0 4.93866,60.68555 l 13.91959,-1.83271 a 540.79725,540.79725 0 0 1 -4.32204,-58.85284 l -14.53621,0 z m 21.71296,0 a 533.48918,533.48918 0 0 0 4.539,57.88224 l 80.12615,-10.55105 a 453.1004,453.1004 0 0 1 -4.28779,-47.33119 l -80.37736,0 z m 85.27035,53.14339 -80.02338,10.53391 a 533.48918,533.48918 0 0 0 10.91643,57.00866 l 78.48754,-21.03354 a 453.1004,453.1004 0 0 1 -9.38059,-46.50903 z m -87.25152,11.48738 -13.79398,1.81559 a 555.41339,555.41339 0 0 0 11.48737,59.72065 l 13.54848,-3.63121 a 540.79725,540.79725 0 0 1 -11.24187,-57.90503 z m 101.15398,51.96723 -78.78443,21.11348 a 533.48918,533.48918 0 0 0 19.14372,54.83336 l 75.62711,-31.32765 a 453.1004,453.1004 0 0 1 -15.9864,-44.61919 z m -85.57295,22.92907 -13.47425,3.61407 a 555.41339,555.41339 0 0 0 20.09148,57.40262 l 12.50366,-5.17847 a 540.79725,540.79725 0 0 1 -19.12089,-55.83822 z m 103.60333,27.17117 -75.28455,31.18492 a 533.48918,533.48918 0 0 0 25.46406,52.14995 l 70.53431,-40.72536 a 453.1004,453.1004 0 0 1 -20.71382,-42.60951 z m -82.47843,34.16524 -12.08116,5.00146 a 555.41339,555.41339 0 0 0 26.20629,54.86763 l 11.82994,-6.82846 a 540.79725,540.79725 0 0 1 -25.95507,-53.04063 z m 111.89913,23.6656 -70.51718,40.71394 a 533.48918,533.48918 0 0 0 32.41815,48.14762 l 64.9619,-49.84333 a 453.1004,453.1004 0 0 1 -26.86287,-39.01823 z m 30.242853,43.80274 -64.933353,49.82619 a 533.48918,533.48918 0 0 0 37.904908,44.01973 L 46.661107,929.59234 A 453.1004,453.1004 0 0 1 15.733123,893.70857 Z m -107.017573,0.53671 -11.77284,6.79422 a 555.41339,555.41339 0 0 0 34.10243,50.27722 l 10.72231,-8.22728 a 540.79725,540.79725 0 0 1 -33.0519,-48.84416 z m 36.59745,53.49735 -10.55102,8.09597 a 555.41339,555.41339 0 0 0 39.37223,46.2863 l 9.77455,-9.7745 A 540.79725,540.79725 0 0 1 -54.687,947.74263 Z"
       id="path6595-3" />
    <path
       style="opacity:1;fill:#0000aa;fill-opacity:1;fill-rule:nonzero;stroke:#ff00b3;stroke-width:0;stroke-linejoin:miter;stroke-miterlimit:4;stroke-dasharray:none;stroke-dashoffset:0;stroke-opacity:1"
       d="m 372.04723,163.74645 -10.33403,10.33408 4.20783,4.20784 a 438.52515,438.52515 0 0 1 6.1262,-0.21691 438.52515,438.52515 0 0 1 6.0406,0.30262 l 4.2935,-4.2935 -10.3341,-10.33408 z"
       id="rect5779"
       inkscape:connector-curvature="0"
       inkscape:transform-center-x="-0.014509016"
       inkscape:transform-center-y="-152.43024"
       inkscape:tile-cx="392.84292"
       inkscape:tile-cy="393.80915"
       inkscape:tile-w="7.0703241"
       inkscape:tile-h="5.0039472"
       inkscape:tile-x0="389.32226"
       inkscape:tile-y0="238.87694" />
    <use
       x="0"
       y="0"
       inkscape:tiled-clone-of="#rect5779"
       xlink:href="#rect5779"
       id="use6433"
       inkscape:transform-center-x="-0.014509016"
       inkscape:transform-center-y="-152.43024"
       width="100%"
       height="100%"
       transform="translate(-8.3995589e-6,-4.8896923e-6)"
       style="opacity:1" />
    <use
       x="0"
       y="0"
       inkscape:tiled-clone-of="#rect5779"
       xlink:href="#rect5779"
       transform="matrix(0.96592583,0.25881905,-0.25881905,0.96592583,172.2762,-75.270155)"
       id="use6435"
       inkscape:transform-center-x="-39.198454"
       inkscape:transform-center-y="-146.96514"
       width="100%"
       height="100%"
       style="opacity:1" />
    <use
       x="0"
       y="0"
       inkscape:tiled-clone-of="#rect5779"
       xlink:href="#rect5779"
       transform="matrix(0.8660254,0.5,-0.5,0.8660254,358.16355,-103.38718)"
       id="use6437"
       inkscape:transform-center-x="-75.711083"
       inkscape:transform-center-y="-131.48461"
       width="100%"
       height="100%"
       style="opacity:1" />
    <use
       x="0"
       y="0"
       inkscape:tiled-clone-of="#rect5779"
       xlink:href="#rect5779"
       transform="matrix(0.70710678,0.70710678,-0.70710678,0.70710678,544.99413,-82.434945)"
       id="use6439"
       inkscape:transform-center-x="-107.06414"
       inkscape:transform-center-y="-107.04362"
       width="100%"
       height="100%"
       style="opacity:1" />
    <use
       x="0"
       y="0"
       inkscape:tiled-clone-of="#rect5779"
       xlink:href="#rect5779"
       transform="matrix(0.5,0.8660254,-0.8660254,0.5,720.03585,-13.841325)"
       id="use6441"
       inkscape:transform-center-x="-131.50448"
       inkscape:transform-center-y="-75.685956"
       width="100%"
       height="100%"
       style="opacity:1" />
    <use
       x="0"
       y="0"
       inkscape:tiled-clone-of="#rect5779"
       xlink:href="#rect5779"
       transform="matrix(0.25881905,0.96592583,-0.96592583,0.25881905,871.35973,97.719155)"
       id="use6443"
       inkscape:transform-center-x="-146.98302"
       inkscape:transform-center-y="-39.170419"
       width="100%"
       height="100%"
       style="opacity:1" />
    <use
       x="0"
       y="0"
       inkscape:tiled-clone-of="#rect5779"
       xlink:href="#rect5779"
       transform="matrix(0,1,-1,0,988.65355,244.64381)"
       id="use6445"
       inkscape:transform-center-x="-152.43024"
       inkscape:transform-center-y="0.01450902"
       width="100%"
       height="100%"
       style="opacity:1" />
    <use
       x="0"
       y="0"
       inkscape:tiled-clone-of="#rect5779"
       xlink:href="#rect5779"
       transform="matrix(-0.25881905,0.96592583,-0.96592583,-0.25881905,1063.9236,416.92003)"
       id="use6447"
       inkscape:transform-center-x="-146.96514"
       inkscape:transform-center-y="39.198455"
       width="100%"
       height="100%"
       style="opacity:1" />
    <use
       x="0"
       y="0"
       inkscape:tiled-clone-of="#rect5779"
       xlink:href="#rect5779"
       transform="matrix(-0.5,0.8660254,-0.8660254,-0.5,1092.0408,602.80736)"
       id="use6449"
       inkscape:transform-center-x="-131.48461"
       inkscape:transform-center-y="75.711084"
       width="100%"
       height="100%"
       style="opacity:1" />
    <use
       x="0"
       y="0"
       inkscape:tiled-clone-of="#rect5779"
       xlink:href="#rect5779"
       transform="matrix(-0.70710678,0.70710678,-0.70710678,-0.70710678,1071.0885,789.63798)"
       id="use6451"
       inkscape:transform-center-x="-107.04362"
       inkscape:transform-center-y="107.06414"
       width="100%"
       height="100%"
       style="opacity:1" />
    <use
       x="0"
       y="0"
       inkscape:tiled-clone-of="#rect5779"
       xlink:href="#rect5779"
       transform="matrix(-0.70710678,-0.70710678,0.70710678,-0.70710678,199.01551,1315.7323)"
       id="use6463"
       inkscape:transform-center-x="107.06414"
       inkscape:transform-center-y="107.04362"
       width="100%"
       height="100%"
       style="opacity:1;fill:#0000aa" />
    <use
       x="0"
       y="0"
       inkscape:tiled-clone-of="#rect5779"
       xlink:href="#rect5779"
       transform="matrix(-0.5,-0.8660254,0.8660254,-0.5,23.973827,1247.1387)"
       id="use6465"
       inkscape:transform-center-x="131.50449"
       inkscape:transform-center-y="75.685956"
       width="100%"
       height="100%"
       style="opacity:1" />
    <use
       x="0"
       y="0"
       inkscape:tiled-clone-of="#rect5779"
       xlink:href="#rect5779"
       transform="matrix(-0.25881905,-0.96592583,0.96592583,-0.25881905,-127.35007,1135.5782)"
       id="use6467"
       inkscape:transform-center-x="146.98302"
       inkscape:transform-center-y="39.170416"
       width="100%"
       height="100%"
       style="opacity:1" />
    <use
       x="0"
       y="0"
       inkscape:tiled-clone-of="#rect5779"
       xlink:href="#rect5779"
       transform="matrix(0,-1,1,0,-244.64381,988.65355)"
       id="use6469"
       inkscape:transform-center-x="152.43024"
       inkscape:transform-center-y="-0.01451"
       width="100%"
       height="100%"
       style="opacity:1" />
    <use
       x="0"
       y="0"
       inkscape:tiled-clone-of="#rect5779"
       xlink:href="#rect5779"
       transform="matrix(0.25881905,-0.96592583,0.96592583,0.25881905,-319.91394,816.37738)"
       id="use6471"
       inkscape:transform-center-x="146.96514"
       inkscape:transform-center-y="-39.198455"
       width="100%"
       height="100%"
       style="opacity:1" />
    <use
       x="0"
       y="0"
       inkscape:tiled-clone-of="#rect5779"
       xlink:href="#rect5779"
       transform="matrix(0.5,-0.8660254,0.8660254,0.5,-348.03097,630.48997)"
       id="use6473"
       inkscape:transform-center-x="131.4846"
       inkscape:transform-center-y="-75.711084"
       width="100%"
       height="100%"
       style="opacity:1" />
    <use
       x="0"
       y="0"
       inkscape:tiled-clone-of="#rect5779"
       xlink:href="#rect5779"
       transform="matrix(0.70710678,-0.70710678,0.70710678,0.70710678,-327.07878,443.65938)"
       id="use6475"
       inkscape:transform-center-x="107.04362"
       inkscape:transform-center-y="-107.06414"
       width="100%"
       height="100%"
       style="opacity:1" />
    <use
       x="0"
       y="0"
       inkscape:tiled-clone-of="#rect5779"
       xlink:href="#rect5779"
       transform="matrix(0.8660254,-0.5,0.5,0.8660254,-258.48514,268.61768)"
       id="use6477"
       inkscape:transform-center-x="75.685957"
       inkscape:transform-center-y="-131.50448"
       width="100%"
       height="100%"
       style="opacity:1" />
    <use
       x="0"
       y="0"
       inkscape:tiled-clone-of="#rect5779"
       xlink:href="#rect5779"
       transform="matrix(0.96592583,-0.25881905,0.25881905,0.96592583,-146.92466,117.29375)"
       id="use6479"
       inkscape:transform-center-x="39.170419"
       inkscape:transform-center-y="-146.98302"
       width="100%"
       height="100%"
       style="opacity:1" />
    <circle
       style="opacity:1;fill:#00ffff;fill-opacity:1;fill-rule:nonzero;stroke:#ff00b3;stroke-width:0;stroke-linejoin:miter;stroke-miterlimit:4;stroke-dasharray:none;stroke-dashoffset:0;stroke-opacity:1"
       id="path6988"
       cx="372.04645"
       cy="616.59497"
       r="1.4616094" />
    <circle
       style="opacity:1;fill:#00ffff;fill-opacity:1;fill-rule:nonzero;stroke:#ff00b3;stroke-width:0;stroke-linejoin:miter;stroke-miterlimit:4;stroke-dasharray:none;stroke-dashoffset:0;stroke-opacity:1"
       id="path6988-2"
       cx="372.04645"
       cy="27.564413"
       r="1.4616094" />
    <path
       style="opacity:1;fill:#0000aa;fill-opacity:1;fill-rule:nonzero;stroke:#ff00b3;stroke-width:0;stroke-linejoin:miter;stroke-miterlimit:4;stroke-dasharray:none;stroke-dashoffset:0;stroke-opacity:1"
       d="m 372.04723,173.72655 a 442.8691,442.8691 0 0 0 -442.869078,442.86911 442.8691,442.8691 0 0 0 137.32894,320.339 l 15.48969,0 a 432.6378,432.6378 0 0 1 -142.58733,-320.339 432.6378,432.6378 0 0 1 432.637778,-432.63781 432.6378,432.6378 0 0 1 432.6378,432.63781 432.6378,432.6378 0 0 1 -142.5816,320.339 l 14.9816,0 a 442.8691,442.8691 0 0 0 137.8313,-320.339 442.8691,442.8691 0 0 0 -442.8691,-442.86911 z"
       id="path4163"
       inkscape:connector-curvature="0" />
    <flowRoot
       xml:space="preserve"
       id="flowRoot4186"
       style="font-style:normal;font-weight:normal;font-size:176.15464783px;line-height:125%;font-family:sans-serif;letter-spacing:0px;word-spacing:0px;opacity:1;fill:#0000aa;fill-opacity:1;stroke:none;stroke-width:1px;stroke-linecap:butt;stroke-linejoin:miter;stroke-opacity:1;"
       transform="translate(20.462602,23.180295)"><flowRegion
         id="flowRegion4188"><rect
           id="rect4190"
           width="694.42285"
           height="781.61499"
           x="4.4995503"
           y="295.87531"
           style="fill:#0000aa;" /></flowRegion><flowPara
         id="flowPara4192"
         style="font-style:normal;font-variant:normal;font-weight:normal;font-stretch:normal;font-size:365.40353394px;font-family:'URW Gothic';-inkscape-font-specification:'URW Gothic';text-align:center;text-anchor:middle;fill:#0000aa;">99</flowPara><flowPara
         id="flowPara4194"
         style="font-style:normal;font-variant:normal;font-weight:600;font-stretch:normal;font-size:102.31299591px;line-height:11.00000367%;font-family:'URW Gothic';-inkscape-font-specification:'URW Gothic Semi-Bold';text-align:center;text-anchor:middle;fill:#0000aa;">km/h</flowPara></flowRoot>    <path
       inkscape:connector-curvature="0"
       style="opacity:1;fill:#917c6f;fill-opacity:0.39215687;fill-rule:nonzero;stroke:#ff00b3;stroke-width:0;stroke-linejoin:miter;stroke-miterlimit:4;stroke-dasharray:none;stroke-dashoffset:0;stroke-opacity:1"
       d="m 380.81695,61.490567 0,14.616142 a 540.79725,540.79725 0 0 1 58.83568,4.607511 l 1.8727,-14.2279 a 555.41339,555.41339 0 0 0 -60.70838,-4.995753 z m 66.52628,5.578113 -1.88981,14.347798 a 540.79725,540.79725 0 0 1 57.945,11.104845 l 3.72255,-13.896756 A 555.41339,555.41339 0 0 0 447.34323,67.06868 Z m 76.80326,15.775158 -3.72255,13.896753 a 540.79725,540.79725 0 0 1 55.73547,19.457739 l 5.29265,-12.78342 A 555.41339,555.41339 0 0 0 524.14649,82.843838 Z m -143.32954,0.702259 0,80.388783 a 453.1004,453.1004 0 0 1 47.38828,3.70542 l 10.51106,-79.840678 a 533.48918,533.48918 0 0 0 -57.89934,-4.253525 z m 63.683,5.127068 -10.53391,79.977695 a 453.1004,453.1004 0 0 1 46.66887,8.81536 l 20.83374,-77.739598 a 533.48918,533.48918 0 0 0 -56.9687,-11.053457 z m 73.95996,15.386915 -20.91935,78.07646 a 453.1004,453.1004 0 0 1 44.76193,15.79228 l 31.08783,-75.05046 a 533.48918,533.48918 0 0 0 -54.93041,-18.81828 z m 68.46177,1.42736 -5.42396,13.09743 a 540.79725,540.79725 0 0 1 53.00634,25.89227 l 7.11397,-12.32096 a 555.41339,555.41339 0 0 0 -54.69635,-26.66874 z m -8.03318,19.40064 -31.27626,75.50722 a 453.1004,453.1004 0 0 1 42.75222,20.53682 l 40.71396,-70.51718 A 533.48918,533.48918 0 0 0 578.8885,124.88808 Z m 77.94517,15.98641 -7.11397,12.32666 a 540.79725,540.79725 0 0 1 48.94693,32.94341 l 8.35289,-10.88788 a 555.41339,555.41339 0 0 0 -50.18585,-34.38219 z m -10.80226,18.7098 -40.53694,70.22028 a 453.1004,453.1004 0 0 1 39.13814,26.76011 l 49.45508,-64.45376 a 533.48918,533.48918 0 0 0 -48.05628,-32.52663 z m 65.75549,19.06379 -8.36429,10.8993 a 540.79725,540.79725 0 0 1 44.75051,38.53295 l 9.78594,-9.78597 A 555.41339,555.41339 0 0 0 711.7869,178.64808 Z m -13.04605,16.99697 -49.61491,64.66501 a 453.1004,453.1004 0 0 1 35.99223,30.82522 l 57.51107,-57.5111 a 533.48918,533.48918 0 0 0 -43.88839,-37.97913 z m 71.22517,35.44415 -9.76885,9.76883 a 540.79725,540.79725 0 0 1 38.59577,44.60778 l 10.54531,-8.09026 A 555.41339,555.41339 0 0 0 769.96602,231.0892 Z m -14.56478,14.56475 -57.95643,57.95644 a 453.1004,453.1004 0 0 1 30.9337,35.88947 l 64.92765,-49.82049 a 533.48918,533.48918 0 0 0 -37.90492,-44.02542 z m 57.64814,36.24347 -10.71662,8.22158 a 540.79725,540.79725 0 0 1 33.05762,48.84988 l 11.76714,-6.79422 a 555.41339,555.41339 0 0 0 -34.10814,-50.27724 z m -16.34041,12.53792 -64.95618,49.84332 a 453.1004,453.1004 0 0 1 26.86286,39.01824 l 70.51148,-40.71394 a 533.48918,533.48918 0 0 0 -32.41816,-48.14762 z m 59.67499,52.66377 -11.82426,6.82849 a 540.79725,540.79725 0 0 1 25.94939,53.0406 l 12.08114,-5.00146 a 555.41339,555.41339 0 0 0 -26.20627,-54.86763 z m -18.53283,10.69949 -70.52859,40.71963 a 453.1004,453.1004 0 0 1 20.71382,42.60951 L 863.3152,409.94852 A 533.48918,533.48918 0 0 0 837.85113,357.7986 Z m 47.16562,49.48932 -12.50367,5.17847 a 540.79725,540.79725 0 0 1 19.12089,55.83822 l 13.47427,-3.60834 a 555.41339,555.41339 0 0 0 -20.09149,-57.40835 z m -19.315,7.99892 -75.62141,31.32765 a 453.1004,453.1004 0 0 1 15.98068,44.61919 l 78.78445,-21.10775 a 533.48918,533.48918 0 0 0 -19.14372,-54.83909 z"
       id="path6595-8-1" />
    <path
       inkscape:connector-curvature="0"
       style="opacity:1;fill:#917c6f;fill-opacity:0.39215687;fill-rule:nonzero;stroke:#ff00b3;stroke-width:0;stroke-linejoin:miter;stroke-miterlimit:4;stroke-dasharray:none;stroke-dashoffset:0;stroke-opacity:1"
       d="m 909.52161,481.67041 -13.54846,3.63118 a 540.79725,540.79725 0 0 1 11.23616,57.89936 l 13.79398,-1.81562 a 555.41339,555.41339 0 0 0 -11.48168,-59.71492 z m -20.45117,5.48105 -78.48754,21.02784 a 453.1004,453.1004 0 0 1 9.37488,46.509 l 80.02908,-10.53388 a 533.48918,533.48918 0 0 0 -10.91642,-57.00296 z m 32.93771,60.00041 -13.92532,1.83271 a 540.79725,540.79725 0 0 1 4.32205,58.8528 l 14.53622,0 a 555.41339,555.41339 0 0 0 -4.93295,-60.68551 z m -21.31901,2.80904 -80.12616,10.54531 a 453.1004,453.1004 0 0 1 4.28779,47.33116 l 80.37735,0 a 533.48918,533.48918 0 0 0 -4.53898,-57.87647 z m -75.98111,75.41584 a 453.1004,453.1004 0 0 1 -3.70543,47.38828 l 79.84068,10.51106 a 533.48918,533.48918 0 0 0 4.25353,-57.89934 l -80.38878,0 z m 87.82816,0 a 540.79725,540.79725 0 0 1 -4.6075,58.82997 l 14.22217,1.87271 a 555.41339,555.41339 0 0 0 4.99577,-60.70268 l -14.61044,0 z m -92.54415,53.14909 a 453.1004,453.1004 0 0 1 -8.81538,46.6689 l 77.73961,20.828 a 533.48918,533.48918 0 0 0 11.05346,-56.96869 l -79.97769,-10.52821 z m 87.22867,11.48168 a 540.79725,540.79725 0 0 1 -11.09912,57.94499 l 13.89104,3.72256 a 555.41339,555.41339 0 0 0 11.5559,-59.77774 l -14.34782,-1.88981 z m -100.71434,52.09284 a 453.1004,453.1004 0 0 1 -15.7923,44.76194 l 75.04477,31.08214 a 533.48918,533.48918 0 0 0 18.81828,-54.92473 l -78.07075,-20.91935 z m 85.39022,22.87768 a 540.79725,540.79725 0 0 1 -19.45201,55.73548 l 12.772,5.28692 a 555.41339,555.41339 0 0 0 20.57678,-57.29984 l -13.89677,-3.72256 z m -103.64327,27.18832 a 453.1004,453.1004 0 0 1 -20.53682,42.75221 l 70.51146,40.70827 a 533.48918,533.48918 0 0 0 25.52686,-52.18992 l -75.5015,-31.27056 z m 81.80471,33.87977 a 540.79725,540.79725 0 0 1 -25.89226,53.01205 l 12.30954,7.10824 a 555.41339,555.41339 0 0 0 26.66873,-54.69632 l -13.08601,-5.42397 z m -111.21969,24.00246 a 453.1004,453.1004 0 0 1 -26.75441,39.13814 l 64.44806,49.45513 a 533.48918,533.48918 0 0 0 32.52092,-48.05634 l -70.21457,-40.53693 z m -30.4998,43.63146 a 453.1004,453.1004 0 0 1 -30.82521,35.99221 l 57.5054,57.5054 a 533.48918,533.48918 0 0 0 37.97911,-43.8827 l -64.6593,-49.61491 z m 107.0975,0.5995 a 540.79725,540.79725 0 0 1 -32.94341,48.94121 l 10.88789,8.3529 a 555.41339,555.41339 0 0 0 34.38219,-50.18017 l -12.32667,-7.11394 z m -36.34052,53.69721 a 540.79725,540.79725 0 0 1 -38.53295,44.7505 l 9.78025,9.78024 a 555.41339,555.41339 0 0 0 39.64628,-46.16644 l -8.74682,-6.7143 -2.14676,-1.65 z"
       id="path6595-6-2" />
    <text
       xml:space="preserve"
       style="font-style:normal;font-weight:normal;font-size:116.92913818px;line-height:125%;font-family:sans-serif;letter-spacing:0px;word-spacing:0px;opacity:1;fill:#000000;fill-opacity:1;stroke:none;stroke-width:1px;stroke-linecap:butt;stroke-linejoin:miter;stroke-opacity:1"
       x="536.63757"
       y="973.43756"
       id="text4232-2"
       sodipodi:linespacing="125%"><tspan
         sodipodi:role="line"
         id="tspan4234-0"
         x="536.63757"
         y="973.43756"
         style="font-size:102.31299591px;fill:#e3dedb"><tspan
           id="tspan4242-3"
           style="font-style:normal;font-variant:normal;font-weight:bold;font-stretch:normal;font-size:36.54035568px;font-family:sans-serif;-inkscape-font-specification:'sans-serif Bold';fill:#483e37"> km</tspan></tspan></text>
  </g>
</svg>
