<?xml version="1.0" encoding="UTF-8" standalone="no"?>
<!-- Created with Inkscape (http://www.inkscape.org/) -->

<svg
   xmlns:dc="http://purl.org/dc/elements/1.1/"
   xmlns:cc="http://creativecommons.org/ns#"
   xmlns:rdf="http://www.w3.org/1999/02/22-rdf-syntax-ns#"
   xmlns:svg="http://www.w3.org/2000/svg"
   xmlns="http://www.w3.org/2000/svg"
   xmlns:xlink="http://www.w3.org/1999/xlink"
   xmlns:sodipodi="http://sodipodi.sourceforge.net/DTD/sodipodi-0.dtd"
   xmlns:inkscape="http://www.inkscape.org/namespaces/inkscape"
   width="420"
   height="360"
   viewBox="0 0 744.09449 1052.3622"
   id="svg4834"
   version="1.1"
   inkscape:version="0.91 r13725"
   sodipodi:docname="velocimetro.svg">
  <defs
     id="defs4836" />
  <sodipodi:namedview
     id="base"
     pagecolor="#ffffff"
     bordercolor="#666666"
     borderopacity="1.0"
     inkscape:pageopacity="0.0"
     inkscape:pageshadow="2"
     inkscape:zoom="0.70710678"
     inkscape:cx="229.92254"
     inkscape:cy="210.46801"
     inkscape:document-units="px"
     inkscape:current-layer="layer1"
     showgrid="false"
     showguides="true"
     inkscape:window-width="1366"
     inkscape:window-height="704"
     inkscape:window-x="0"
     inkscape:window-y="27"
     inkscape:window-maximized="1" />
  <metadata
     id="metadata4839">
    <rdf:RDF>
      <cc:Work
         rdf:about="">
        <dc:format>image/svg+xml</dc:format>
        <dc:type
           rdf:resource="http://purl.org/dc/dcmitype/StillImage" />
        <dc:title />
      </cc:Work>
    </rdf:RDF>
  </metadata>
  <g
     inkscape:label="Camada 1"
     inkscape:groupmode="layer"
     id="layer1">
    <path
       style="opacity:1;fill:#000000;fill-opacity:1;fill-rule:nonzero;stroke:#0000af;stroke-width:17.53936958;stroke-linejoin:bevel;stroke-miterlimit:4;stroke-dasharray:none;stroke-dashoffset:0;stroke-opacity:0.94117647"
       d="M 371.01371,31.949975 A 584.64568,584.64568 0 0 0 -213.63195,616.59566 584.64568,584.64568 0 0 0 -51.466985,1020.4122 l 844.321995,0 A 584.64568,584.64568 0 0 0 955.65941,616.59566 584.64568,584.64568 0 0 0 371.01371,31.949975 Z"
       id="path5382"
       inkscape:connector-curvature="0" />
    <path
       style="opacity:1;fill:#37c837;fill-opacity:1;fill-rule:nonzero;stroke:#ff00b3;stroke-width:0;stroke-linejoin:miter;stroke-miterlimit:4;stroke-dasharray:none;stroke-dashoffset:0;stroke-opacity:1"
       d="m 380.81693,61.490545 0,14.61614 a 540.79725,540.79725 0 0 1 58.8357,4.60754 l 1.8727,-14.22791 a 555.41339,555.41339 0 0 0 -60.7084,-4.99577 z m -17.53936,0.13125 a 555.41339,555.41339 0 0 0 -60.67412,5.10422 l 1.82132,13.83395 a 540.79725,540.79725 0 0 1 58.8528,-4.32203 l 0,-14.61614 z m 84.06566,5.4468 -1.8898,14.34778 a 540.79725,540.79725 0 0 1 57.945,11.10485 l 3.7225,-13.89676 a 555.41339,555.41339 0 0 0 -59.7777,-11.55587 z m -150.50629,0.67371 a 555.41339,555.41339 0 0 0 -59.65786,11.64152 l 3.56269,13.29154 a 540.79725,540.79725 0 0 1 57.89933,-11.24186 l -1.80416,-13.6912 z m 227.30949,15.10143 -3.7225,13.89676 a 540.79725,540.79725 0 0 1 55.7355,19.457745 l 5.2926,-12.78342 a 555.41339,555.41339 0 0 0 -57.3056,-20.571085 z m -160.86886,0.57093 a 533.48918,533.48918 0 0 0 -57.8822,4.53902 l 10.56244,80.211775 a 453.1004,453.1004 0 0 1 47.31976,-4.36201 l 0,-80.388785 z m 17.53936,0.13126 0,80.388775 a 453.1004,453.1004 0 0 1 47.3883,3.7054 l 10.511,-79.840675 a 533.48918,533.48918 0 0 0 -57.8993,-4.2535 z m -160.53776,0.52524 a 555.41339,555.41339 0 0 0 -57.36836,20.005855 l 4.99577,12.05261 A 540.79725,540.79725 0 0 1 223.7448,97.014465 l -3.46563,-12.9433 z m 79.3097,4.58468 a 533.48918,533.48918 0 0 0 -56.99722,10.91644 l 21.07349,78.653115 a 453.1004,453.1004 0 0 1 46.47477,-9.4434 L 299.58887,88.655845 Z m 144.91106,0.0175 -10.5339,79.977715 a 453.1004,453.1004 0 0 1 46.6689,8.81534 l 20.8337,-77.739595 a 533.48918,533.48918 0 0 0 -56.9687,-11.05346 z M 225.56612,103.80333 a 533.48918,533.48918 0 0 0 -54.83909,19.14373 l 31.39044,75.77557 a 453.1004,453.1004 0 0 1 44.6021,-15.97501 l -21.15345,-78.94429 z m 292.89381,0.25696 -20.9194,78.07647 a 453.1004,453.1004 0 0 1 44.7619,15.79227 l 31.0879,-75.05046 a 533.48918,533.48918 0 0 0 -54.9304,-18.81828 z m 68.4617,1.42738 -5.4239,13.09741 a 540.79725,540.79725 0 0 1 53.0063,25.89228 l 7.114,-12.32097 a 555.41339,555.41339 0 0 0 -54.6964,-26.66872 z m -429.3377,1.01056 a 555.41339,555.41339 0 0 0 -54.8448,26.10922 l 6.62866,11.48165 a 540.79725,540.79725 0 0 1 53.04061,-25.94935 l -4.82447,-11.64152 z m 421.3046,18.39006 -31.2763,75.50721 a 453.1004,453.1004 0 0 1 42.7522,20.53682 l 40.714,-70.51715 a 533.48918,533.48918 0 0 0 -52.1899,-25.52688 z m -413.49981,0.44536 a 533.48918,533.48918 0 0 0 -52.14994,25.46405 l 40.8053,70.67133 a 453.1004,453.1004 0 0 1 42.58664,-20.70239 l -31.242,-75.43299 z m 491.44491,15.54104 -7.1139,12.32667 a 540.79725,540.79725 0 0 1 48.9469,32.94341 l 8.3529,-10.88789 a 555.41339,555.41339 0 0 0 -50.1859,-34.38246 z m -569.127428,0.77649 a 555.41339,555.41339 0 0 0 -50.21443,34.15381 l 8.06741,10.51678 a 540.79725,540.79725 0 0 1 48.84989,-33.06332 l -6.70287,-11.60727 z m 10.31695,17.87052 a 533.48918,533.48918 0 0 0 -48.14765,32.42386 l 49.92897,65.07036 A 453.1004,453.1004 0 0 1 138.81704,230.17593 L 98.023152,159.52174 Z m 548.008278,0.0628 -40.537,70.2203 a 453.1004,453.1004 0 0 1 39.1382,26.76016 l 49.4551,-64.45377 a 533.48918,533.48918 0 0 0 -48.0563,-32.52664 z m 65.7555,19.0638 -8.3643,10.89929 a 540.79725,540.79725 0 0 1 44.7505,38.53297 l 9.786,-9.78597 a 555.41339,555.41339 0 0 0 -46.1722,-39.64624 z m -678.811338,0.87355 a 555.41339,555.41339 0 0 0 -46.21212,39.40076 l 9.5347496,9.53476 A 540.79725,540.79725 0 0 1 40.905982,189.85599 l -7.93039,-10.33405 z m 12.14396,15.82083 A 533.48918,533.48918 0 0 0 1.0941316,233.25339 l 58.0535004,58.05348 a 453.1004,453.1004 0 0 1 35.88377,-30.91656 l -49.91185,-65.04754 z m 653.621278,0.30259 -49.6149,64.66502 a 453.1004,453.1004 0 0 1 35.9922,30.82521 l 57.5111,-57.51109 a 533.48918,533.48918 0 0 0 -43.8884,-37.97914 z m 71.2252,35.44414 -9.7689,9.76885 a 540.79725,540.79725 0 0 1 38.5958,44.60776 l 10.5453,-8.09024 a 555.41339,555.41339 0 0 0 -39.3722,-46.28633 z m -795.826118,0.0117 a 555.41339,555.41339 0 0 0 -39.75476,45.9952 l 10.60813,8.13596 a 540.79725,540.79725 0 0 1 38.52724,-44.75053 l -9.38061,-9.38059 z m 781.261318,14.55333 -57.9564,57.95645 a 453.1004,453.1004 0 0 1 30.9337,35.88889 l 64.9276,-49.8205 a 533.48918,533.48918 0 0 0 -37.9049,-44.02543 z m -766.336858,0.37113 a 533.48918,533.48918 0 0 0 -37.97341,43.88839 l 64.76205,49.68919 a 453.1004,453.1004 0 0 1 30.81951,-35.96939 l -57.60815,-57.60815 z m -58.08204,35.82095 a 555.41339,555.41339 0 0 0 -34.530632,50.05459 l 12.189632,7.03972 a 540.79725,540.79725 0 0 1 32.94914,-48.95265 l -10.60814,-8.14166 z m 882.066998,0.0514 -10.7166,8.22158 a 540.79725,540.79725 0 0 1 33.0576,48.8499 l 11.7672,-6.79423 a 555.41339,555.41339 0 0 0 -34.1082,-50.27725 z m -16.3403,12.5379 -64.9562,49.84336 a 453.1004,453.1004 0 0 1 26.8628,39.01823 l 70.5115,-40.71393 a 533.48918,533.48918 0 0 0 -32.4181,-48.14757 z m -849.157918,0.1257 a 533.48918,533.48918 0 0 0 -32.52092,48.062 l 70.30592,40.59406 a 453.1004,453.1004 0 0 1 26.76581,-39.12092 l -64.55081,-49.53501 z m 908.832818,52.5382 -11.8242,6.82848 a 540.79725,540.79725 0 0 1 25.9493,53.04061 l 12.0812,-5.00147 a 555.41339,555.41339 0 0 0 -26.2063,-54.86762 z m -968.39933,0.1599 a 555.41339,555.41339 0 0 0 -26.68016,54.6221 l 12.72634,5.27552 a 540.79725,540.79725 0 0 1 25.88656,-53.00635 l -11.93274,-6.89127 z m 17.876252,10.31692 a 533.48918,533.48918 0 0 0 -25.526862,52.18991 l 75.575712,31.3048 a 453.1004,453.1004 0 0 1 20.54255,-42.73509 l -70.5914,-40.75962 z m 931.990278,0.22275 -70.5286,40.71963 a 453.1004,453.1004 0 0 1 20.7138,42.60948 l 75.2789,-31.17919 a 533.48918,533.48918 0 0 0 -25.4641,-52.14992 z m 47.1656,49.48932 -12.5036,5.17847 a 540.79725,540.79725 0 0 1 19.1208,55.83822 l 13.4743,-3.60837 a 555.41339,555.41339 0 0 0 -20.0915,-57.40832 z m -1025.7848,0.0629 a 555.41339,555.41339 0 0 0 -20.60534,57.24845 l 13.55989,3.6369 a 540.79725,540.79725 0 0 1 19.45774,-55.74117 l -12.41229,-5.14418 z m 19.09804,7.90757 a 533.48918,533.48918 0 0 0 -18.81828,54.93611 l 78.122132,20.93648 a 453.1004,453.1004 0 0 1 15.8094,-44.7562 l -75.113252,-31.11635 z m 987.37176,0.0292 -75.6214,31.32765 a 453.1004,453.1004 0 0 1 15.9807,44.6192 l 78.7844,-21.10776 a 533.48918,533.48918 0 0 0 -19.1437,-54.83909 z m -1031.8996,66.178 a 555.41339,555.41339 0 0 0 -11.45883,59.8177 l 14.52479,1.91267 a 540.79725,540.79725 0 0 1 11.09912,-57.93359 l -14.16508,-3.79674 z m 1075.7195,0.2055 -13.5485,3.63118 a 540.79725,540.79725 0 0 1 11.2362,57.89933 l 13.794,-1.81559 a 555.41339,555.41339 0 0 0 -11.4817,-59.71488 z m -20.4512,5.48106 -78.4875,21.0278 a 453.1004,453.1004 0 0 1 9.3748,46.50903 l 80.0291,-10.53388 a 533.48918,533.48918 0 0 0 -10.9164,-57.00295 z m -1033.8979,0.0401 a 533.48918,533.48918 0 0 0 -11.04775,56.95726 l 80.000542,10.53961 a 453.1004,453.1004 0 0 1 8.83247,-46.65747 l -77.785262,-20.8394 z m -33.40019,59.92045 a 555.41339,555.41339 0 0 0 -4.89296,60.72551 l 14.67893,0 a 540.79725,540.79725 0 0 1 4.60751,-58.82997 l -14.39348,-1.89554 z m 1100.23579,0.0401 -13.9253,1.83271 a 540.79725,540.79725 0 0 1 4.322,58.85281 l 14.5363,0 a 555.41339,555.41339 0 0 0 -4.933,-60.68552 z m -1078.7569,2.78618 a 533.48918,533.48918 0 0 0 -4.25353,57.89934 l 80.388782,0 a 453.1004,453.1004 0 0 1 3.72825,-47.38256 l -79.863502,-10.51678 z m 1057.4379,0.0234 -80.1262,10.54534 a 453.1004,453.1004 0 0 1 4.2878,47.33116 l 80.3774,0 a 533.48918,533.48918 0 0 0 -4.539,-57.8765 z m -1083.5357,75.41591 a 555.41339,555.41339 0 0 0 4.93865,60.68555 l 13.9196,-1.83275 a 540.79725,540.79725 0 0 1 -4.32205,-58.8528 l -14.5362,0 z m 21.71295,0 a 533.48918,533.48918 0 0 0 4.53899,57.8822 l 80.126152,-10.55101 a 453.1004,453.1004 0 0 1 -4.28778,-47.33119 l -80.377362,0 z m 985.84165,0 a 453.1004,453.1004 0 0 1 -3.7054,47.38824 l 79.8406,10.51105 a 533.48918,533.48918 0 0 0 4.2536,-57.89933 l -80.3888,0 z m 87.8282,0 a 540.79725,540.79725 0 0 1 -4.6075,58.82997 l 14.2222,1.87271 a 555.41339,555.41339 0 0 0 4.9957,-60.70487 l -14.6104,0 z m -988.399508,53.14339 -80.023372,10.53388 a 533.48918,533.48918 0 0 0 10.91644,57.00868 l 78.487542,-21.03353 a 453.1004,453.1004 0 0 1 -9.38061,-46.50903 z m 895.855308,0.006 a 453.1004,453.1004 0 0 1 -8.8154,46.66891 l 77.7397,20.828 a 533.48918,533.48918 0 0 0 11.0534,-56.96872 l -79.9777,-10.52819 z m -983.1068,11.48168 -13.79399,1.81559 a 555.41339,555.41339 0 0 0 11.48735,59.72065 l 13.54849,-3.6312 a 540.79725,540.79725 0 0 1 -11.24185,-57.90504 z m 1070.3355,0 a 540.79725,540.79725 0 0 1 -11.0991,57.945 l 13.891,3.72022 a 555.41339,555.41339 0 0 0 11.5559,-59.77775 l -14.3478,-1.8898 z m -969.181548,51.96723 -78.784422,21.11348 a 533.48918,533.48918 0 0 0 19.14373,54.83337 l 75.627102,-31.32766 a 453.1004,453.1004 0 0 1 -15.98641,-44.61919 z m 868.467148,0.1257 a 453.1004,453.1004 0 0 1 -15.7923,44.76193 l 75.0448,31.07971 a 533.48918,533.48918 0 0 0 18.8183,-54.92471 l -78.0708,-20.91936 z m -954.04009,22.80346 -13.47424,3.61408 a 555.41339,555.41339 0 0 0 20.09149,57.40261 l 12.50364,-5.17847 a 540.79725,540.79725 0 0 1 -19.12089,-55.83822 z m 1039.43039,0.0743 a 540.79725,540.79725 0 0 1 -19.4521,55.73547 l 12.772,5.28692 a 555.41339,555.41339 0 0 0 20.5768,-57.29983 l -13.8967,-3.72256 z m -935.827058,27.09695 -75.284562,31.18492 a 533.48918,533.48918 0 0 0 25.464072,52.14992 l 70.53431,-40.72536 a 453.1004,453.1004 0 0 1 -20.71382,-42.60948 z m 832.183758,0.0912 a 453.1004,453.1004 0 0 1 -20.5368,42.75221 l 70.5114,40.70824 a 533.48918,533.48918 0 0 0 25.5269,-52.18989 l -75.5015,-31.27056 z m 81.8047,33.87978 a 540.79725,540.79725 0 0 1 -25.8923,53.01204 l 12.3096,7.10824 a 555.41339,555.41339 0 0 0 26.6687,-54.69632 l -13.086,-5.42396 z m -996.46688,0.1941 -12.08118,5.00147 a 555.41339,555.41339 0 0 0 26.20631,54.86762 l 11.82992,-6.82849 a 540.79725,540.79725 0 0 1 -25.95505,-53.0406 z m 111.899102,23.66561 -70.51715,40.71393 a 533.48918,533.48918 0 0 0 32.41813,48.14762 l 64.96191,-49.84356 a 453.1004,453.1004 0 0 1 -26.86289,-39.01823 z m 773.348078,0.14265 a 453.1004,453.1004 0 0 1 -26.7544,39.13817 l 64.4481,49.45506 a 533.48918,533.48918 0 0 0 32.5209,-48.05626 l -70.2146,-40.53697 z m -30.4998,43.63147 a 453.1004,453.1004 0 0 1 -30.8252,35.99225 l 57.5054,57.50539 a 533.48918,533.48918 0 0 0 37.9791,-43.88268 l -64.6593,-49.61496 z m -712.605398,0.0234 -64.93335,49.8262 a 533.48918,533.48918 0 0 0 37.90489,44.01969 l 57.95645,-57.95668 a 453.1004,453.1004 0 0 1 -30.92799,-35.89225 z m -107.01758,0.53668 -11.772832,6.79422 a 555.41339,555.41339 0 0 0 34.102412,50.27725 l 10.72231,-8.22728 a 540.79725,540.79725 0 0 1 -33.05189,-48.84419 z m 926.720478,0.0342 a 540.79725,540.79725 0 0 1 -32.9434,48.94124 l 10.8879,8.3529 a 555.41339,555.41339 0 0 0 34.3822,-50.1802 l -12.3267,-7.11394 z m -890.123038,53.4631 -10.55101,8.09597 a 555.41339,555.41339 0 0 0 39.37223,46.28635 l 9.77455,-9.77453 a 540.79725,540.79725 0 0 1 -38.59577,-44.60779 z m 853.782538,0.23415 a 540.79725,540.79725 0 0 1 -38.533,44.7505 l 9.7803,9.78027 a 555.41339,555.41339 0 0 0 39.6463,-46.16645 l -8.7469,-6.7143 -2.1467,-1.65002 z"
       id="path6595"
       inkscape:connector-curvature="0" />
    <path
       style="opacity:1;fill:#00ff00;fill-opacity:1;fill-rule:nonzero;stroke:#ff00b3;stroke-width:0;stroke-linejoin:miter;stroke-miterlimit:4;stroke-dasharray:none;stroke-dashoffset:0;stroke-opacity:1"
       d="m 372.04723,163.74645 -10.33403,10.33408 4.20783,4.20784 a 438.52515,438.52515 0 0 1 6.1262,-0.21691 438.52515,438.52515 0 0 1 6.0406,0.30262 l 4.2935,-4.2935 -10.3341,-10.33408 z"
       id="rect5779"
       inkscape:connector-curvature="0"
       inkscape:transform-center-x="-0.014509016"
       inkscape:transform-center-y="-152.43024"
       inkscape:tile-cx="392.84292"
       inkscape:tile-cy="393.80915"
       inkscape:tile-w="7.0703241"
       inkscape:tile-h="5.0039472"
       inkscape:tile-x0="389.32226"
       inkscape:tile-y0="238.87694" />
    <use
       x="0"
       y="0"
       inkscape:tiled-clone-of="#rect5779"
       xlink:href="#rect5779"
       id="use6433"
       inkscape:transform-center-x="-0.014509016"
       inkscape:transform-center-y="-152.43024"
       width="100%"
       height="100%"
       transform="translate(-8.3995589e-6,-4.8896923e-6)"
       style="opacity:1" />
    <use
       x="0"
       y="0"
       inkscape:tiled-clone-of="#rect5779"
       xlink:href="#rect5779"
       transform="matrix(0.96592583,0.25881905,-0.25881905,0.96592583,172.2762,-75.270155)"
       id="use6435"
       inkscape:transform-center-x="-39.198454"
       inkscape:transform-center-y="-146.96514"
       width="100%"
       height="100%"
       style="opacity:1" />
    <use
       x="0"
       y="0"
       inkscape:tiled-clone-of="#rect5779"
       xlink:href="#rect5779"
       transform="matrix(0.8660254,0.5,-0.5,0.8660254,358.16355,-103.38718)"
       id="use6437"
       inkscape:transform-center-x="-75.711083"
       inkscape:transform-center-y="-131.48461"
       width="100%"
       height="100%"
       style="opacity:1" />
    <use
       x="0"
       y="0"
       inkscape:tiled-clone-of="#rect5779"
       xlink:href="#rect5779"
       transform="matrix(0.70710678,0.70710678,-0.70710678,0.70710678,544.99413,-82.434945)"
       id="use6439"
       inkscape:transform-center-x="-107.06414"
       inkscape:transform-center-y="-107.04362"
       width="100%"
       height="100%"
       style="opacity:1" />
    <use
       x="0"
       y="0"
       inkscape:tiled-clone-of="#rect5779"
       xlink:href="#rect5779"
       transform="matrix(0.5,0.8660254,-0.8660254,0.5,720.03585,-13.841325)"
       id="use6441"
       inkscape:transform-center-x="-131.50448"
       inkscape:transform-center-y="-75.685956"
       width="100%"
       height="100%"
       style="opacity:1" />
    <use
       x="0"
       y="0"
       inkscape:tiled-clone-of="#rect5779"
       xlink:href="#rect5779"
       transform="matrix(0.25881905,0.96592583,-0.96592583,0.25881905,871.35973,97.719155)"
       id="use6443"
       inkscape:transform-center-x="-146.98302"
       inkscape:transform-center-y="-39.170419"
       width="100%"
       height="100%"
       style="opacity:1" />
    <use
       x="0"
       y="0"
       inkscape:tiled-clone-of="#rect5779"
       xlink:href="#rect5779"
       transform="matrix(0,1,-1,0,988.65355,244.64381)"
       id="use6445"
       inkscape:transform-center-x="-152.43024"
       inkscape:transform-center-y="0.01450902"
       width="100%"
       height="100%"
       style="opacity:1" />
    <use
       x="0"
       y="0"
       inkscape:tiled-clone-of="#rect5779"
       xlink:href="#rect5779"
       transform="matrix(-0.25881905,0.96592583,-0.96592583,-0.25881905,1063.9236,416.92003)"
       id="use6447"
       inkscape:transform-center-x="-146.96514"
       inkscape:transform-center-y="39.198455"
       width="100%"
       height="100%"
       style="opacity:1" />
    <use
       x="0"
       y="0"
       inkscape:tiled-clone-of="#rect5779"
       xlink:href="#rect5779"
       transform="matrix(-0.5,0.8660254,-0.8660254,-0.5,1092.0408,602.80736)"
       id="use6449"
       inkscape:transform-center-x="-131.48461"
       inkscape:transform-center-y="75.711084"
       width="100%"
       height="100%"
       style="opacity:1" />
    <use
       x="0"
       y="0"
       inkscape:tiled-clone-of="#rect5779"
       xlink:href="#rect5779"
       transform="matrix(-0.70710678,0.70710678,-0.70710678,-0.70710678,1071.0885,789.63798)"
       id="use6451"
       inkscape:transform-center-x="-107.04362"
       inkscape:transform-center-y="107.06414"
       width="100%"
       height="100%"
       style="opacity:1" />
    <use
       x="0"
       y="0"
       inkscape:tiled-clone-of="#rect5779"
       xlink:href="#rect5779"
       transform="matrix(-0.70710678,-0.70710678,0.70710678,-0.70710678,199.01551,1315.7323)"
       id="use6463"
       inkscape:transform-center-x="107.06414"
       inkscape:transform-center-y="107.04362"
       width="100%"
       height="100%"
       style="opacity:1;fill:#0000aa" />
    <use
       x="0"
       y="0"
       inkscape:tiled-clone-of="#rect5779"
       xlink:href="#rect5779"
       transform="matrix(-0.5,-0.8660254,0.8660254,-0.5,23.973827,1247.1387)"
       id="use6465"
       inkscape:transform-center-x="131.50449"
       inkscape:transform-center-y="75.685956"
       width="100%"
       height="100%"
       style="opacity:1" />
    <use
       x="0"
       y="0"
       inkscape:tiled-clone-of="#rect5779"
       xlink:href="#rect5779"
       transform="matrix(-0.25881905,-0.96592583,0.96592583,-0.25881905,-127.35007,1135.5782)"
       id="use6467"
       inkscape:transform-center-x="146.98302"
       inkscape:transform-center-y="39.170416"
       width="100%"
       height="100%"
       style="opacity:1" />
    <use
       x="0"
       y="0"
       inkscape:tiled-clone-of="#rect5779"
       xlink:href="#rect5779"
       transform="matrix(0,-1,1,0,-244.64381,988.65355)"
       id="use6469"
       inkscape:transform-center-x="152.43024"
       inkscape:transform-center-y="-0.01451"
       width="100%"
       height="100%"
       style="opacity:1" />
    <use
       x="0"
       y="0"
       inkscape:tiled-clone-of="#rect5779"
       xlink:href="#rect5779"
       transform="matrix(0.25881905,-0.96592583,0.96592583,0.25881905,-319.91394,816.37738)"
       id="use6471"
       inkscape:transform-center-x="146.96514"
       inkscape:transform-center-y="-39.198455"
       width="100%"
       height="100%"
       style="opacity:1" />
    <use
       x="0"
       y="0"
       inkscape:tiled-clone-of="#rect5779"
       xlink:href="#rect5779"
       transform="matrix(0.5,-0.8660254,0.8660254,0.5,-348.03097,630.48997)"
       id="use6473"
       inkscape:transform-center-x="131.4846"
       inkscape:transform-center-y="-75.711084"
       width="100%"
       height="100%"
       style="opacity:1" />
    <use
       x="0"
       y="0"
       inkscape:tiled-clone-of="#rect5779"
       xlink:href="#rect5779"
       transform="matrix(0.70710678,-0.70710678,0.70710678,0.70710678,-327.07878,443.65938)"
       id="use6475"
       inkscape:transform-center-x="107.04362"
       inkscape:transform-center-y="-107.06414"
       width="100%"
       height="100%"
       style="opacity:1" />
    <use
       x="0"
       y="0"
       inkscape:tiled-clone-of="#rect5779"
       xlink:href="#rect5779"
       transform="matrix(0.8660254,-0.5,0.5,0.8660254,-258.48514,268.61768)"
       id="use6477"
       inkscape:transform-center-x="75.685957"
       inkscape:transform-center-y="-131.50448"
       width="100%"
       height="100%"
       style="opacity:1" />
    <use
       x="0"
       y="0"
       inkscape:tiled-clone-of="#rect5779"
       xlink:href="#rect5779"
       transform="matrix(0.96592583,-0.25881905,0.25881905,0.96592583,-146.92466,117.29375)"
       id="use6479"
       inkscape:transform-center-x="39.170419"
       inkscape:transform-center-y="-146.98302"
       width="100%"
       height="100%"
       style="opacity:1" />
    <circle
       style="opacity:1;fill:#00ffff;fill-opacity:1;fill-rule:nonzero;stroke:#ff00b3;stroke-width:0;stroke-linejoin:miter;stroke-miterlimit:4;stroke-dasharray:none;stroke-dashoffset:0;stroke-opacity:1"
       id="path6988"
       cx="372.04645"
       cy="616.59497"
       r="1.4616094" />
    <circle
       style="opacity:1;fill:#00ffff;fill-opacity:1;fill-rule:nonzero;stroke:#ff00b3;stroke-width:0;stroke-linejoin:miter;stroke-miterlimit:4;stroke-dasharray:none;stroke-dashoffset:0;stroke-opacity:1"
       id="path6988-2"
       cx="372.04645"
       cy="27.564413"
       r="1.4616094" />
    <path
       style="opacity:1;fill:#0000aa;fill-opacity:1;fill-rule:nonzero;stroke:#ff00b3;stroke-width:0;stroke-linejoin:miter;stroke-miterlimit:4;stroke-dasharray:none;stroke-dashoffset:0;stroke-opacity:1"
       d="m 372.04723,173.72655 a 442.8691,442.8691 0 0 0 -442.869078,442.86911 442.8691,442.8691 0 0 0 137.32894,320.339 l 15.48969,0 a 432.6378,432.6378 0 0 1 -142.58733,-320.339 432.6378,432.6378 0 0 1 432.637778,-432.63781 432.6378,432.6378 0 0 1 432.6378,432.63781 432.6378,432.6378 0 0 1 -142.5816,320.339 l 14.9816,0 a 442.8691,442.8691 0 0 0 137.8313,-320.339 442.8691,442.8691 0 0 0 -442.8691,-442.86911 z"
       id="path4163"
       inkscape:connector-curvature="0" />
    <flowRoot
       xml:space="preserve"
       id="flowRoot4186"
       style="font-style:normal;font-weight:normal;font-size:176.15464783px;line-height:125%;font-family:sans-serif;letter-spacing:0px;word-spacing:0px;opacity:1;fill:#0000aa;fill-opacity:1;stroke:none;stroke-width:1px;stroke-linecap:butt;stroke-linejoin:miter;stroke-opacity:1;"
       transform="translate(20.462602,23.180295)"><flowRegion
         id="flowRegion4188"><rect
           id="rect4190"
           width="694.42285"
           height="781.61499"
           x="4.4995503"
           y="295.87531"
           style="fill:#0000aa;" /></flowRegion><flowPara
         id="flowPara4192"
         style="font-style:normal;font-variant:normal;font-weight:normal;font-stretch:normal;font-size:365.40353394px;font-family:'URW Gothic';-inkscape-font-specification:'URW Gothic';text-align:center;text-anchor:middle;fill:#0000aa;">99</flowPara><flowPara
         id="flowPara4194"
         style="font-style:normal;font-variant:normal;font-weight:600;font-stretch:normal;font-size:102.31299591px;line-height:11.00000367%;font-family:'URW Gothic';-inkscape-font-specification:'URW Gothic Semi-Bold';text-align:center;text-anchor:middle;fill:#0000aa;">km/h</flowPara></flowRoot>    <text
       xml:space="preserve"
       style="font-style:normal;font-weight:normal;font-size:116.92913818px;line-height:125%;font-family:sans-serif;letter-spacing:0px;word-spacing:0px;opacity:1;fill:#000000;fill-opacity:1;stroke:none;stroke-width:1px;stroke-linecap:butt;stroke-linejoin:miter;stroke-opacity:1"
       x="209.23573"
       y="973.43756"
       id="text4232"
       sodipodi:linespacing="125%"><tspan
         sodipodi:role="line"
         id="tspan4234"
         x="209.23573"
         y="973.43756"
         style="font-size:102.31299591px;fill:#e3dedb"><tspan
           style="fill:#483e37"
           id="tspan4246">0000</tspan><tspan
           style="fill:#241c1c"
           id="tspan4236">0</tspan><tspan
           id="tspan4242"
           style="font-style:normal;font-variant:normal;font-weight:bold;font-stretch:normal;font-size:36.54035568px;font-family:sans-serif;-inkscape-font-specification:'sans-serif Bold';fill:#483e37"> km</tspan></tspan></text>
    <path
       style="opacity:1;fill:#ffcc00;fill-opacity:1;fill-rule:nonzero;stroke:#ff00b3;stroke-width:0;stroke-linejoin:miter;stroke-miterlimit:4;stroke-dasharray:none;stroke-dashoffset:0;stroke-opacity:1"
       d="M 213 21.035156 L 213 26.035156 A 185 185 0 0 1 233.12695 27.611328 L 233.76758 22.744141 A 190 190 0 0 0 213 21.035156 z M 235.75781 22.943359 L 235.11133 27.851562 A 185 185 0 0 1 254.93359 31.650391 L 256.20703 26.896484 A 190 190 0 0 0 235.75781 22.943359 z M 262.03125 28.339844 L 260.75781 33.09375 A 185 185 0 0 1 279.82422 39.75 L 281.63477 35.376953 A 190 190 0 0 0 262.03125 28.339844 z M 213 28.580078 L 213 56.080078 A 155 155 0 0 1 229.21094 57.347656 L 232.80664 30.035156 A 182.5 182.5 0 0 0 213 28.580078 z M 234.78516 30.333984 L 231.18164 57.693359 A 155 155 0 0 1 247.14648 60.708984 L 254.27344 34.115234 A 182.5 182.5 0 0 0 234.78516 30.333984 z M 260.08594 35.597656 L 252.92969 62.306641 A 155 155 0 0 1 268.24219 67.708984 L 278.87695 42.035156 A 182.5 182.5 0 0 0 260.08594 35.597656 z M 283.50586 36.085938 L 281.65039 40.566406 A 185 185 0 0 1 299.7832 49.423828 L 302.2168 45.208984 A 190 190 0 0 0 283.50586 36.085938 z M 280.75781 42.722656 L 270.05859 68.552734 A 155 155 0 0 1 284.68359 75.578125 L 298.61133 51.455078 A 182.5 182.5 0 0 0 280.75781 42.722656 z M 307.42188 48.191406 L 304.98828 52.408203 A 185 185 0 0 1 321.73242 63.677734 L 324.58984 59.953125 A 190 190 0 0 0 307.42188 48.191406 z M 303.72656 54.591797 L 289.85938 78.613281 A 155 155 0 0 1 303.24805 87.767578 L 320.16602 65.71875 A 182.5 182.5 0 0 0 303.72656 54.591797 z M 326.2207 61.113281 L 323.35938 64.841797 A 185 185 0 0 1 338.66797 78.023438 L 342.01562 74.675781 A 190 190 0 0 0 326.2207 61.113281 z M 321.75781 66.927734 L 304.78516 89.048828 A 155 155 0 0 1 317.09766 99.59375 L 336.77148 79.919922 A 182.5 182.5 0 0 0 321.75781 66.927734 z M 346.12305 79.052734 L 342.78125 82.394531 A 185 185 0 0 1 355.98438 97.654297 L 359.5918 94.886719 A 190 190 0 0 0 346.12305 79.052734 z M 341.14062 84.035156 L 321.31445 103.86133 A 155 155 0 0 1 331.89648 116.13867 L 354.10742 99.095703 A 182.5 182.5 0 0 0 341.14062 84.035156 z M 360.86133 96.433594 L 357.19531 99.246094 A 185 185 0 0 1 368.50391 115.95703 L 372.5293 113.63281 A 190 190 0 0 0 360.86133 96.433594 z M 355.27148 100.72266 L 333.05078 117.77344 A 155 155 0 0 1 342.24023 131.12109 L 366.36133 117.19336 A 182.5 182.5 0 0 0 355.27148 100.72266 z M 375.68555 118.73828 L 371.64062 121.07422 A 185 185 0 0 1 380.51758 139.21875 L 384.65039 137.50781 A 190 190 0 0 0 375.68555 118.73828 z M 369.3457 122.39844 L 345.21875 136.32812 A 155 155 0 0 1 352.30469 150.9043 L 378.05664 140.23828 A 182.5 182.5 0 0 0 369.3457 122.39844 z M 385.48047 139.32812 L 381.20312 141.09961 A 185 185 0 0 1 387.74414 160.20117 L 392.35352 158.9668 A 190 190 0 0 0 385.48047 139.32812 z M 378.87305 142.06445 L 353.00391 152.78125 A 155 155 0 0 1 358.4707 168.04492 L 385.42188 160.82422 A 182.5 182.5 0 0 0 378.87305 142.06445 z M 393.86328 164.77344 L 389.22852 166.01562 A 185 185 0 0 1 393.07227 185.82227 L 397.79102 185.20117 A 190 190 0 0 0 393.86328 164.77344 z M 386.86719 166.64844 L 360.01758 173.8418 A 155 155 0 0 1 363.22461 189.75195 L 390.60156 186.14844 A 182.5 182.5 0 0 0 386.86719 166.64844 z M 398.13477 187.17383 L 393.37109 187.80078 A 185 185 0 0 1 394.84961 207.93359 L 399.82227 207.93359 A 190 190 0 0 0 398.13477 187.17383 z M 390.8418 188.13477 L 363.43164 191.74219 A 155 155 0 0 1 364.89844 207.93359 L 392.39453 207.93359 A 182.5 182.5 0 0 0 390.8418 188.13477 z M 364.84961 213.93359 A 155 155 0 0 1 363.58203 230.14453 L 390.89453 233.74023 A 182.5 182.5 0 0 0 392.34961 213.93359 L 364.84961 213.93359 z M 394.89453 213.93359 A 185 185 0 0 1 393.31836 234.05859 L 398.18359 234.69922 A 190 190 0 0 0 399.89258 213.93359 L 394.89453 213.93359 z M 363.23633 232.11523 A 155 155 0 0 1 360.2207 248.08203 L 386.81445 255.20703 A 182.5 182.5 0 0 0 390.5957 235.71875 L 363.23633 232.11523 z M 393.07617 236.04297 L 393.07617 236.04492 A 185 185 0 0 1 389.2793 255.86719 L 394.03125 257.13867 A 190 190 0 0 0 397.98438 236.68945 L 393.07617 236.04297 z M 358.62305 253.86328 L 358.62305 253.86523 A 155 155 0 0 1 353.2207 269.17773 L 378.89258 279.80859 A 182.5 182.5 0 0 0 385.33008 261.01953 L 358.62305 253.86328 z M 387.83398 261.69141 A 185 185 0 0 1 381.17969 280.75781 L 385.54883 282.56641 A 190 190 0 0 0 392.58789 262.96484 L 387.83398 261.69141 z M 352.37891 270.99023 A 155 155 0 0 1 345.35352 285.61523 L 369.47461 299.54102 A 182.5 182.5 0 0 0 378.20703 281.6875 L 352.37891 270.99023 z M 380.36328 282.58008 A 185 185 0 0 1 371.50586 300.71484 L 375.7168 303.14648 A 190 190 0 0 0 384.83984 284.4375 L 380.36328 282.58008 z M 342.31641 290.79102 A 155 155 0 0 1 333.16406 304.17969 L 355.21094 321.09766 A 182.5 182.5 0 0 0 366.33594 304.6582 L 342.31641 290.79102 z M 331.88281 305.71875 A 155 155 0 0 1 321.33789 318.03125 L 341.00977 337.70312 A 182.5 182.5 0 0 0 354.00195 322.69141 L 331.88281 305.71875 z M 368.51953 305.91992 A 185 185 0 0 1 357.25 322.66211 L 360.97461 325.51953 A 190 190 0 0 0 372.73633 308.35352 L 368.51953 305.91992 z M 356.08789 324.28906 A 185 185 0 0 1 342.90625 339.59766 L 346.25195 342.94336 A 190 190 0 0 0 359.81445 327.15039 L 356.82227 324.85352 L 356.08789 324.28906 z "
       transform="matrix(2.9232284,0,0,2.9232284,-241.83071,0)"
       id="path6595-8" />
    <path
       style="opacity:1;fill:#ff0000;fill-opacity:1;fill-rule:nonzero;stroke:#ff00b3;stroke-width:0;stroke-linejoin:miter;stroke-miterlimit:4;stroke-dasharray:none;stroke-dashoffset:0;stroke-opacity:1"
       d="M 393.86328 164.77344 L 389.22852 166.01562 A 185 185 0 0 1 393.07227 185.82227 L 397.79102 185.20117 A 190 190 0 0 0 393.86328 164.77344 z M 386.86719 166.64844 L 360.01758 173.8418 A 155 155 0 0 1 363.22461 189.75195 L 390.60156 186.14844 A 182.5 182.5 0 0 0 386.86719 166.64844 z M 398.13477 187.17383 L 393.37109 187.80078 A 185 185 0 0 1 394.84961 207.93359 L 399.82227 207.93359 A 190 190 0 0 0 398.13477 187.17383 z M 390.8418 188.13477 L 363.43164 191.74219 A 155 155 0 0 1 364.89844 207.93359 L 392.39453 207.93359 A 182.5 182.5 0 0 0 390.8418 188.13477 z M 364.84961 213.93359 A 155 155 0 0 1 363.58203 230.14453 L 390.89453 233.74023 A 182.5 182.5 0 0 0 392.34961 213.93359 L 364.84961 213.93359 z M 394.89453 213.93359 A 185 185 0 0 1 393.31836 234.05859 L 398.18359 234.69922 A 190 190 0 0 0 399.89258 213.93359 L 394.89453 213.93359 z M 363.23633 232.11523 A 155 155 0 0 1 360.2207 248.08008 L 386.81445 255.20508 A 182.5 182.5 0 0 0 390.5957 235.7168 L 363.23633 232.11523 z M 393.07617 236.04297 A 185 185 0 0 1 389.2793 255.86523 L 394.03125 257.13867 A 190 190 0 0 0 397.98438 236.68945 L 393.07617 236.04297 z M 358.62305 253.86328 A 155 155 0 0 1 353.2207 269.17578 L 378.89258 279.80859 A 182.5 182.5 0 0 0 385.33008 261.01953 L 358.62305 253.86328 z M 387.83398 261.68945 A 185 185 0 0 1 381.17969 280.75586 L 385.54883 282.56445 A 190 190 0 0 0 392.58789 262.96289 L 387.83398 261.68945 z M 352.37891 270.99023 A 155 155 0 0 1 345.35352 285.61523 L 369.47461 299.54102 A 182.5 182.5 0 0 0 378.20703 281.6875 L 352.37891 270.99023 z M 380.36328 282.58008 A 185 185 0 0 1 371.50586 300.71484 L 375.7168 303.14648 A 190 190 0 0 0 384.83984 284.43555 L 380.36328 282.58008 z M 342.31641 290.79102 A 155 155 0 0 1 333.16406 304.17969 L 355.21094 321.09766 A 182.5 182.5 0 0 0 366.33594 304.6582 L 342.31641 290.79102 z M 331.88281 305.7168 A 155 155 0 0 1 321.33789 318.0293 L 341.00977 337.70117 A 182.5 182.5 0 0 0 354.00195 322.68945 L 331.88281 305.7168 z M 368.51953 305.92188 A 185 185 0 0 1 357.25 322.66406 L 360.97461 325.52148 A 190 190 0 0 0 372.73633 308.35547 L 368.51953 305.92188 z M 356.08789 324.29102 A 185 185 0 0 1 342.90625 339.59961 L 346.25195 342.94531 A 190 190 0 0 0 359.81445 327.15234 L 356.82227 324.85547 L 356.08789 324.29102 z "
       transform="matrix(2.9232284,0,0,2.9232284,-241.83071,0)"
       id="path6595-6" />
  </g>
</svg>
